<?xml version="1.0" encoding="UTF-8"?>
<svg id="Layer_1" data-name="Layer 1" xmlns="http://www.w3.org/2000/svg" viewBox="0 0 458.12 621">
  <rect width="458.12" height="621" rx="26.92" ry="26.92"/>
  <g>
    <path d="M391.5,137.06h-1.84l1.42-2.49c4.69-8.26-1.27-18.51-10.77-18.51h-80.22c-7.53,0-14.49,4.05-18.21,10.6l-46.97,82.67c-4.75,8.35-16.78,8.36-21.54.02l-50.73-88.97c-1.52-2.67-4.36-4.32-7.43-4.32H62.77c-6.42,0-10.55,6.81-7.59,12.51,3.18,6.12,6.98,13.22,11.11,20.81.03.06.05.13.09.19,19.59,37.64,62.37,112.33,62.37,112.33,2.2,3.87,6.31,6.25,10.77,6.25h49.74c3.55,0,6.81.85,9.65,2.32-.31,2.72-1.18,5.45-2.69,8.06l-33.58,58.37c-6.26,10.89-1.52,23.87,8.51,29.07-1.36,11.81,7.75,23.33,20.84,23.33h70.27c4.46,0,8.57-2.39,10.77-6.27l129.24-227.46c4.69-8.26-1.27-18.51-10.77-18.51ZM139.51,262.18c-2.3,0-4.44-1.24-5.58-3.25-.1-.18-2.67-4.66-6.76-11.86.38.04.76.08,1.15.08h49.74c10.6,0,18.58,7.54,20.52,16.68-2.93-1.07-6.07-1.65-9.33-1.65h-49.74ZM397.08,152.63l-129.24,227.46c-1.14,2-3.28,3.25-5.58,3.25h-70.27c-5.41,0-10.25-2.8-12.96-7.48-1.43-2.47-2.1-5.19-2.02-7.9,1.22.22,2.48.34,3.79.34h70.27c4.46,0,8.57-2.39,10.77-6.27l124.43-219h5.23c3.33,0,4.99,2.23,5.55,3.19.56.96,1.68,3.5.03,6.4Z" fill="#ffdf40"/>
    <g>
      <path d="M82.43,455.94c1.9-1.04,4.07-1.56,6.52-1.56,2.84,0,5.41.71,7.72,2.14,2.3,1.43,4.12,3.45,5.47,6.08,1.34,2.63,2.01,5.68,2.01,9.14s-.67,6.53-2.01,9.2c-1.34,2.67-3.16,4.74-5.47,6.21-2.3,1.47-4.88,2.2-7.72,2.2-2.44,0-4.59-.51-6.46-1.53-1.86-1.02-3.37-2.3-4.53-3.85v20.97h-8.41v-50.01h8.41v4.89c1.08-1.55,2.57-2.84,4.47-3.88ZM94.32,466.46c-.82-1.49-1.9-2.62-3.24-3.39-1.34-.77-2.79-1.16-4.35-1.16s-2.95.4-4.29,1.19c-1.34.79-2.42,1.95-3.24,3.45-.82,1.51-1.23,3.28-1.23,5.32s.41,3.81,1.23,5.32c.82,1.51,1.9,2.66,3.24,3.45,1.34.79,2.77,1.19,4.29,1.19s3.01-.41,4.35-1.22c1.34-.82,2.42-1.98,3.24-3.49.82-1.51,1.23-3.3,1.23-5.38s-.41-3.8-1.23-5.29Z" fill="#fff"/>
      <path d="M122.91,455.98c1.74-1.02,3.73-1.53,5.98-1.53v8.99h-2.22c-2.64,0-4.63.63-5.98,1.89-1.34,1.26-2.01,3.46-2.01,6.6v16.87h-8.41v-33.87h8.41v5.26c1.08-1.79,2.49-3.2,4.23-4.22Z" fill="#fff"/>
      <path d="M140.66,487.18c-2.56-1.45-4.58-3.49-6.04-6.14-1.46-2.65-2.19-5.71-2.19-9.17s.75-6.52,2.25-9.17,3.55-4.7,6.16-6.14c2.6-1.45,5.5-2.17,8.71-2.17s6.11.72,8.71,2.17c2.6,1.45,4.65,3.5,6.16,6.14s2.25,5.71,2.25,9.17-.77,6.52-2.31,9.17c-1.54,2.65-3.62,4.7-6.25,6.14-2.62,1.45-5.56,2.17-8.8,2.17s-6.09-.72-8.65-2.17ZM153.6,480.77c1.34-.75,2.41-1.88,3.21-3.39.8-1.51,1.2-3.34,1.2-5.5,0-3.22-.83-5.7-2.49-7.43-1.66-1.73-3.69-2.6-6.1-2.6s-4.41.87-6.04,2.6-2.43,4.21-2.43,7.43.79,5.7,2.37,7.43c1.58,1.73,3.57,2.6,5.98,2.6,1.52,0,2.95-.38,4.29-1.13Z" fill="#fff"/>
      <path d="M172.7,462.64c1.34-2.65,3.17-4.69,5.5-6.11,2.32-1.43,4.9-2.14,7.75-2.14,2.16,0,4.22.48,6.19,1.44,1.96.96,3.52,2.23,4.68,3.82v-16.08h8.53v45.24h-8.53v-5.01c-1.04,1.67-2.5,3.02-4.38,4.03-1.88,1.02-4.06,1.53-6.55,1.53-2.8,0-5.37-.73-7.69-2.2-2.32-1.47-4.15-3.54-5.5-6.21-1.34-2.67-2.01-5.74-2.01-9.2s.67-6.46,2.01-9.11ZM195.67,466.52c-.8-1.49-1.88-2.63-3.24-3.42-1.36-.79-2.82-1.19-4.38-1.19s-3,.39-4.32,1.16c-1.32.77-2.39,1.91-3.21,3.39-.82,1.49-1.23,3.25-1.23,5.29s.41,3.82,1.23,5.35c.82,1.53,1.9,2.7,3.24,3.52,1.34.82,2.77,1.22,4.29,1.22s3.02-.4,4.38-1.19c1.36-.79,2.44-1.94,3.24-3.42.8-1.49,1.2-3.27,1.2-5.35s-.4-3.86-1.2-5.35Z" fill="#fff"/>
      <path d="M244.99,454.94v33.87h-8.47v-4.28c-1.08,1.47-2.49,2.62-4.23,3.45-1.74.83-3.63,1.25-5.68,1.25-2.6,0-4.91-.56-6.91-1.68-2-1.12-3.57-2.77-4.71-4.95-1.14-2.18-1.71-4.78-1.71-7.79v-19.87h8.41v18.65c0,2.69.66,4.76,1.98,6.21,1.32,1.45,3.12,2.17,5.41,2.17s4.14-.72,5.47-2.17c1.32-1.45,1.98-3.51,1.98-6.21v-18.65h8.47Z" fill="#fff"/>
      <path d="M253.21,462.67c1.4-2.63,3.34-4.67,5.83-6.11,2.48-1.45,5.33-2.17,8.53-2.17,4.12,0,7.54,1.05,10.24,3.15,2.7,2.1,4.51,5.04,5.44,8.83h-9.07c-.48-1.47-1.29-2.62-2.43-3.45-1.14-.83-2.55-1.25-4.23-1.25-2.4,0-4.3.89-5.71,2.66-1.4,1.77-2.1,4.29-2.1,7.55s.7,5.72,2.1,7.49c1.4,1.77,3.3,2.66,5.71,2.66,3.4,0,5.62-1.55,6.67-4.65h9.07c-.92,3.67-2.74,6.58-5.47,8.74s-6.13,3.24-10.21,3.24c-3.2,0-6.05-.72-8.53-2.17-2.48-1.45-4.42-3.48-5.83-6.11s-2.1-5.7-2.1-9.2.7-6.57,2.1-9.2Z" fill="#fff"/>
      <path d="M299.22,461.97v16.38c0,1.14.27,1.97.81,2.48.54.51,1.45.76,2.73.76h3.9v7.21h-5.29c-7.09,0-10.63-3.5-10.63-10.51v-16.32h-3.96v-7.03h3.96v-8.38h8.47v8.38h7.45v7.03h-7.45Z" fill="#fff"/>
      <path d="M313.3,449.47c-.98-.96-1.47-2.15-1.47-3.58s.49-2.62,1.47-3.58c.98-.96,2.21-1.44,3.69-1.44s2.71.48,3.69,1.44c.98.96,1.47,2.15,1.47,3.58s-.49,2.62-1.47,3.58c-.98.96-2.21,1.44-3.69,1.44s-2.71-.48-3.69-1.44ZM321.14,454.94v33.87h-8.41v-33.87h8.41Z" fill="#fff"/>
      <path d="M335.56,487.18c-2.56-1.45-4.58-3.49-6.04-6.14-1.46-2.65-2.19-5.71-2.19-9.17s.75-6.52,2.25-9.17c1.5-2.65,3.55-4.7,6.16-6.14,2.6-1.45,5.5-2.17,8.71-2.17s6.11.72,8.71,2.17c2.6,1.45,4.66,3.5,6.16,6.14,1.5,2.65,2.25,5.71,2.25,9.17s-.77,6.52-2.31,9.17c-1.54,2.65-3.62,4.7-6.25,6.14-2.62,1.45-5.56,2.17-8.8,2.17s-6.09-.72-8.65-2.17ZM348.5,480.77c1.34-.75,2.41-1.88,3.21-3.39s1.2-3.34,1.2-5.5c0-3.22-.83-5.7-2.49-7.43-1.66-1.73-3.69-2.6-6.1-2.6s-4.42.87-6.04,2.6c-1.62,1.73-2.43,4.21-2.43,7.43s.79,5.7,2.37,7.43c1.58,1.73,3.57,2.6,5.98,2.6,1.52,0,2.95-.38,4.29-1.13Z" fill="#fff"/>
      <path d="M395.8,458.27c2.44,2.55,3.66,6.1,3.66,10.67v19.87h-8.41v-18.71c0-2.69-.66-4.76-1.98-6.21-1.32-1.45-3.12-2.17-5.41-2.17s-4.15.72-5.5,2.17c-1.34,1.45-2.01,3.52-2.01,6.21v18.71h-8.41v-33.87h8.41v4.22c1.12-1.47,2.55-2.62,4.29-3.45,1.74-.83,3.65-1.25,5.74-1.25,3.96,0,7.17,1.27,9.61,3.82Z" fill="#fff"/>
    </g>
  </g>
</svg>